# xmcd CD database file
#
# Track frame offsets:
#	150
#	32448
#	49784
#	81594
#	100892
#	134170
#	165752
#	194089
#
# Disc length: 2721 seconds
#
# Revision: 0
# Processed by: cddbd v1.5.1PL2 Copyright (c) Steve Scherf et al.
# Submitted via: CDex 1.51
#
DISCID=6a0a9f08
DTITLE=Fieles Difuntos - Fieles Difuntos
DYEAR=2005
DGENRE=Jazz
TTITLE0=5/4
TTITLE1=Chameleon
TTITLE2=Bermuda Blues
TTITLE3=So What
TTITLE4=A Go-Go
TTITLE5=New Orleans
TTITLE6=The Black and Crazy Blues
TTITLE7=Epistrophy
EXTD=YEAR: 2005
EXTT0=
EXTT1=
EXTT2=
EXTT3=
EXTT4=
EXTT5=
EXTT6=
EXTT7=
PLAYORDER=
